<svg width="33" height="29" viewBox="0 0 33 29" fill="none" xmlns="http://www.w3.org/2000/svg">
<path d="M19.0781 0H31.4531C32.3074 0 33 0.695547 33 1.55357V11.9107C33 12.7687 32.3074 13.4643 31.4531 13.4643H19.0781C18.2238 13.4643 17.5312 12.7687 17.5312 11.9107V1.55357C17.5312 0.695547 18.2238 0 19.0781 0ZM13.9219 0H1.54688C0.692549 0 0 0.695547 0 1.55357V11.9107C0 12.7687 0.692549 13.4643 1.54688 13.4643H13.9219C14.7762 13.4643 15.4688 12.7687 15.4688 11.9107V1.55357C15.4688 0.695547 14.7762 0 13.9219 0ZM0 17.0893V27.4464C0 28.3045 0.692549 29 1.54688 29H13.9219C14.7762 29 15.4688 28.3045 15.4688 27.4464V17.0893C15.4688 16.2313 14.7762 15.5357 13.9219 15.5357H1.54688C0.692549 15.5357 0 16.2313 0 17.0893ZM19.0781 29H31.4531C32.3074 29 33 28.3045 33 27.4464V17.0893C33 16.2313 32.3074 15.5357 31.4531 15.5357H19.0781C18.2238 15.5357 17.5312 16.2313 17.5312 17.0893V27.4464C17.5312 28.3045 18.2238 29 19.0781 29Z" fill="black"/>
</svg>
