<svg width="34" height="34" viewBox="0 0 34 34" fill="none" xmlns="http://www.w3.org/2000/svg">
<path d="M32.006 3.78055C28.7713 3.96413 22.342 4.63232 18.373 7.0619C18.0991 7.22954 17.9439 7.52763 17.9439 7.8393V29.3177C17.9439 29.9995 18.6894 30.4304 19.318 30.114C23.4016 28.0587 29.3073 27.4979 32.2274 27.3444C33.2244 27.2919 33.9994 26.4927 33.9994 25.5346V5.5927C34 4.54732 33.0933 3.71916 32.006 3.78055ZM15.6264 7.0619C11.658 4.63232 5.22868 3.96472 1.99396 3.78055C0.906667 3.71916 0 4.54732 0 5.5927V25.5352C0 26.4938 0.775035 27.2931 1.77201 27.345C4.6933 27.4985 10.602 28.0599 14.6855 30.1164C15.3124 30.4322 16.0556 30.0019 16.0556 29.3219V7.82867C16.0556 7.51642 15.9009 7.23013 15.6264 7.0619Z" fill="white"/>
</svg>
