<svg width="34" height="23" viewBox="0 0 34 23" fill="none" xmlns="http://www.w3.org/2000/svg">
<path d="M32.9986 1.15308C30.9379 0.31779 28.8756 6.17488e-08 26.8144 6.17488e-08C20.2711 -0.000513331 13.7283 3.20049 7.18504 3.20049C5.54404 3.20049 3.9041 2.99924 2.26309 2.49612C2.07875 2.43964 1.89388 2.41295 1.71325 2.41295C0.798988 2.41295 0 3.09679 0 4.04605V20.334C0 20.9824 0.384088 21.5969 1.00086 21.8464C3.06155 22.6822 5.12383 23 7.18504 23C13.7283 23 20.2717 19.799 26.815 19.799C28.456 19.799 30.0959 20.0002 31.7369 20.5034C31.9212 20.5598 32.1061 20.5865 32.2867 20.5865C33.201 20.5865 34 19.9027 34 18.9534V2.66605C33.9995 2.01712 33.6154 1.4031 32.9986 1.15308ZM2.54996 5.14522C3.61882 5.40397 4.73443 5.53386 5.88191 5.60368C5.56954 7.11254 4.19681 8.24971 2.54996 8.24971V5.14522ZM2.54996 19.7769V17.3239C4.37584 17.3239 5.85322 18.724 5.9345 20.4762C4.73761 20.3832 3.61882 20.1522 2.54996 19.7769ZM16.9997 16.4286C14.6522 16.4286 12.7498 14.2215 12.7498 11.5C12.7498 8.77799 14.6527 6.57143 16.9997 6.57143C19.3468 6.57143 21.2497 8.77799 21.2497 11.5C21.2497 14.2225 19.3462 16.4286 16.9997 16.4286ZM31.4495 17.8548C30.5188 17.6294 29.5524 17.5031 28.5638 17.4215C28.8756 16.0825 30.0247 15.066 31.4495 14.8915V17.8548ZM31.4495 5.73306C29.8085 5.53232 28.5351 4.20828 28.4846 2.57313C29.5227 2.68453 30.5081 2.89297 31.4495 3.22308V5.73306Z" fill="white"/>
</svg>
