<svg width="25" height="33" viewBox="0 0 25 33" fill="none" xmlns="http://www.w3.org/2000/svg">
<path d="M14.5833 8.76562V0H1.5625C0.696615 0 0 0.689648 0 1.54688V31.4531C0 32.3104 0.696615 33 1.5625 33H23.4375C24.3034 33 25 32.3104 25 31.4531V10.3125H16.1458C15.2865 10.3125 14.5833 9.61641 14.5833 8.76562ZM18.75 23.9766C18.75 24.402 18.3984 24.75 17.9688 24.75H7.03125C6.60156 24.75 6.25 24.402 6.25 23.9766V23.4609C6.25 23.0355 6.60156 22.6875 7.03125 22.6875H17.9688C18.3984 22.6875 18.75 23.0355 18.75 23.4609V23.9766ZM18.75 19.8516C18.75 20.277 18.3984 20.625 17.9688 20.625H7.03125C6.60156 20.625 6.25 20.277 6.25 19.8516V19.3359C6.25 18.9105 6.60156 18.5625 7.03125 18.5625H17.9688C18.3984 18.5625 18.75 18.9105 18.75 19.3359V19.8516ZM18.75 15.2109V15.7266C18.75 16.152 18.3984 16.5 17.9688 16.5H7.03125C6.60156 16.5 6.25 16.152 6.25 15.7266V15.2109C6.25 14.7855 6.60156 14.4375 7.03125 14.4375H17.9688C18.3984 14.4375 18.75 14.7855 18.75 15.2109ZM25 7.85684V8.25H16.6667V0H17.0638C17.4805 0 17.8776 0.161133 18.1706 0.451172L24.5443 6.76758C24.8372 7.05762 25 7.45078 25 7.85684Z" fill="white"/>
</svg>
