<svg width="36" height="27" viewBox="0 0 36 27" fill="none" xmlns="http://www.w3.org/2000/svg">
<path d="M35.318 8.91563C35.5922 8.69766 36 8.90156 36 9.24609V23.625C36 25.4883 34.4883 27 32.625 27H3.375C1.51172 27 0 25.4883 0 23.625V9.25313C0 8.90156 0.400781 8.70469 0.682031 8.92266C2.25703 10.1461 4.34531 11.7 11.5172 16.9102C13.0008 17.993 15.5039 20.2711 18 20.257C20.5102 20.2781 23.0625 17.9508 24.4898 16.9102C31.6617 11.7 33.743 10.1391 35.318 8.91563ZM18 18C19.6313 18.0281 21.9797 15.9469 23.1609 15.0891C32.4914 8.31797 33.2016 7.72734 35.3531 6.03984C35.7609 5.72344 36 5.23125 36 4.71094V3.375C36 1.51172 34.4883 0 32.625 0H3.375C1.51172 0 0 1.51172 0 3.375V4.71094C0 5.23125 0.239062 5.71641 0.646875 6.03984C2.79844 7.72031 3.50859 8.31797 12.8391 15.0891C14.0203 15.9469 16.3687 18.0281 18 18Z" fill="white"/>
</svg>
