<svg width="40" height="28" viewBox="0 0 40 28" fill="none" xmlns="http://www.w3.org/2000/svg">
<path d="M12 14C15.8687 14 19 10.8687 19 7C19 3.13125 15.8687 0 12 0C8.13125 0 5 3.13125 5 7C5 10.8687 8.13125 14 12 14ZM16.8 16H16.2812C14.9812 16.625 13.5375 17 12 17C10.4625 17 9.025 16.625 7.71875 16H7.2C3.225 16 0 19.225 0 23.2V25C0 26.6562 1.34375 28 3 28H21C22.6562 28 24 26.6562 24 25V23.2C24 19.225 20.775 16 16.8 16ZM30 14C33.3125 14 36 11.3125 36 8C36 4.6875 33.3125 2 30 2C26.6875 2 24 4.6875 24 8C24 11.3125 26.6875 14 30 14ZM33 16H32.7625C31.8938 16.3 30.975 16.5 30 16.5C29.025 16.5 28.1062 16.3 27.2375 16H27C25.725 16 24.55 16.3687 23.5187 16.9625C25.0437 18.6062 26 20.7875 26 23.2V25.6C26 25.7375 25.9688 25.8687 25.9625 26H37C38.6562 26 40 24.6562 40 23C40 19.1313 36.8688 16 33 16Z" fill="white"/>
</svg>
