<svg width="35" height="31" viewBox="0 0 35 31" fill="none" xmlns="http://www.w3.org/2000/svg">
<path d="M21.875 21.0357C21.875 21.6474 21.3855 22.1429 20.7812 22.1429H14.2188C13.6145 22.1429 13.125 21.6474 13.125 21.0357V17.7143H0V27.6786C0 29.45 1.53125 31 3.28125 31H31.7188C33.4688 31 35 29.45 35 27.6786V17.7143H21.875V21.0357ZM31.7188 6.64286H26.25V3.32143C26.25 1.55 24.7188 0 22.9688 0H12.0312C10.2812 0 8.75 1.55 8.75 3.32143V6.64286H3.28125C1.53125 6.64286 0 8.19286 0 9.96429V15.5H35V9.96429C35 8.19286 33.4688 6.64286 31.7188 6.64286ZM21.875 6.64286H13.125V4.42857H21.875V6.64286Z" fill="white"/>
</svg>
